<svg width="188" height="91" viewBox="0 0 188 91" fill="none" xmlns="http://www.w3.org/2000/svg">
<path d="M8.30886 22.122C9.2955 13.4216 16.4704 6.73518 25.2187 6.36344L149.532 1.08103C157.42 0.745815 164.585 5.65376 167.122 13.1308L180.101 51.3867C183.788 62.2524 176.369 73.7128 164.946 74.7969L22.3795 88.3275C11.1377 89.3944 1.76279 79.8464 3.03521 68.626L8.30886 22.122Z" stroke="#A7DE93"/>
<path d="M41.7115 48.8321C40.9815 48.8321 40.3215 48.7071 39.7315 48.4571C39.1515 48.2071 38.6915 47.8471 38.3515 47.3771C38.0115 46.9071 37.8365 46.3521 37.8265 45.7121H40.0765C40.1065 46.1421 40.2565 46.4821 40.5265 46.7321C40.8065 46.9821 41.1865 47.1071 41.6665 47.1071C42.1565 47.1071 42.5415 46.9921 42.8215 46.7621C43.1015 46.5221 43.2415 46.2121 43.2415 45.8321C43.2415 45.5221 43.1465 45.2671 42.9565 45.0671C42.7665 44.8671 42.5265 44.7121 42.2365 44.6021C41.9565 44.4821 41.5665 44.3521 41.0665 44.2121C40.3865 44.0121 39.8315 43.8171 39.4015 43.6271C38.9815 43.4271 38.6165 43.1321 38.3065 42.7421C38.0065 42.3421 37.8565 41.8121 37.8565 41.1521C37.8565 40.5321 38.0115 39.9921 38.3215 39.5321C38.6315 39.0721 39.0665 38.7221 39.6265 38.4821C40.1865 38.2321 40.8265 38.1071 41.5465 38.1071C42.6265 38.1071 43.5015 38.3721 44.1715 38.9021C44.8515 39.4221 45.2265 40.1521 45.2965 41.0921H42.9865C42.9665 40.7321 42.8115 40.4371 42.5215 40.2071C42.2415 39.9671 41.8665 39.8471 41.3965 39.8471C40.9865 39.8471 40.6565 39.9521 40.4065 40.1621C40.1665 40.3721 40.0465 40.6771 40.0465 41.0771C40.0465 41.3571 40.1365 41.5921 40.3165 41.7821C40.5065 41.9621 40.7365 42.1121 41.0065 42.2321C41.2865 42.3421 41.6765 42.4721 42.1765 42.6221C42.8565 42.8221 43.4115 43.0221 43.8415 43.2221C44.2715 43.4221 44.6415 43.7221 44.9515 44.1221C45.2615 44.5221 45.4165 45.0471 45.4165 45.6971C45.4165 46.2571 45.2715 46.7771 44.9815 47.2571C44.6915 47.7371 44.2665 48.1221 43.7065 48.4121C43.1465 48.6921 42.4815 48.8321 41.7115 48.8321ZM54.9621 44.3921C54.9621 44.6921 54.9421 44.9621 54.9021 45.2021H48.8271C48.8771 45.8021 49.0871 46.2721 49.4571 46.6121C49.8271 46.9521 50.2821 47.1221 50.8221 47.1221C51.6021 47.1221 52.1571 46.7871 52.4871 46.1171H54.7521C54.5121 46.9171 54.0521 47.5771 53.3721 48.0971C52.6921 48.6071 51.8571 48.8621 50.8671 48.8621C50.0671 48.8621 49.3471 48.6871 48.7071 48.3371C48.0771 47.9771 47.5821 47.4721 47.2221 46.8221C46.8721 46.1721 46.6971 45.4221 46.6971 44.5721C46.6971 43.7121 46.8721 42.9571 47.2221 42.3071C47.5721 41.6571 48.0621 41.1571 48.6921 40.8071C49.3221 40.4571 50.0471 40.2821 50.8671 40.2821C51.6571 40.2821 52.3621 40.4521 52.9821 40.7921C53.6121 41.1321 54.0971 41.6171 54.4371 42.2471C54.7871 42.8671 54.9621 43.5821 54.9621 44.3921ZM52.7871 43.7921C52.7771 43.2521 52.5821 42.8221 52.2021 42.5021C51.8221 42.1721 51.3571 42.0071 50.8071 42.0071C50.2871 42.0071 49.8471 42.1671 49.4871 42.4871C49.1371 42.7971 48.9221 43.2321 48.8421 43.7921H52.7871ZM64.22 44.3921C64.22 44.6921 64.2 44.9621 64.16 45.2021H58.085C58.135 45.8021 58.345 46.2721 58.715 46.6121C59.085 46.9521 59.54 47.1221 60.08 47.1221C60.86 47.1221 61.415 46.7871 61.745 46.1171H64.01C63.77 46.9171 63.31 47.5771 62.63 48.0971C61.95 48.6071 61.115 48.8621 60.125 48.8621C59.325 48.8621 58.605 48.6871 57.965 48.3371C57.335 47.9771 56.84 47.4721 56.48 46.8221C56.13 46.1721 55.955 45.4221 55.955 44.5721C55.955 43.7121 56.13 42.9571 56.48 42.3071C56.83 41.6571 57.32 41.1571 57.95 40.8071C58.58 40.4571 59.305 40.2821 60.125 40.2821C60.915 40.2821 61.62 40.4521 62.24 40.7921C62.87 41.1321 63.355 41.6171 63.695 42.2471C64.045 42.8671 64.22 43.5821 64.22 44.3921ZM62.045 43.7921C62.035 43.2521 61.84 42.8221 61.46 42.5021C61.08 42.1721 60.615 42.0071 60.065 42.0071C59.545 42.0071 59.105 42.1671 58.745 42.4871C58.395 42.7971 58.18 43.2321 58.1 43.7921H62.045ZM75.747 46.7321H71.577L70.887 48.7271H68.682L72.447 38.242H74.892L78.657 48.7271H76.437L75.747 46.7321ZM75.177 45.0521L73.662 40.6721L72.147 45.0521H75.177ZM82.1643 37.6271V48.7271H80.0643V37.6271H82.1643ZM86.3391 37.6271V48.7271H84.2391V37.6271H86.3391ZM99.2781 41.4071C99.0381 40.9671 98.7081 40.6321 98.2881 40.4021C97.8681 40.1721 97.3781 40.0571 96.8181 40.0571C96.1981 40.0571 95.6481 40.1971 95.1681 40.4771C94.6881 40.7571 94.3131 41.1571 94.0431 41.6771C93.7731 42.1971 93.6381 42.7971 93.6381 43.4771C93.6381 44.1771 93.7731 44.7871 94.0431 45.3071C94.3231 45.8271 94.7081 46.2271 95.1981 46.5071C95.6881 46.7871 96.2581 46.9271 96.9081 46.9271C97.7081 46.9271 98.3631 46.7171 98.8731 46.2971C99.3831 45.8671 99.7181 45.2721 99.8781 44.5121H96.2781V42.9071H101.948V44.7371C101.808 45.4671 101.508 46.1421 101.048 46.7621C100.588 47.3821 99.9931 47.8821 99.2631 48.2621C98.5431 48.6321 97.7331 48.8171 96.8331 48.8171C95.8231 48.8171 94.9081 48.5921 94.0881 48.1421C93.2781 47.6821 92.6381 47.0471 92.1681 46.2371C91.7081 45.4271 91.4781 44.5071 91.4781 43.4771C91.4781 42.4471 91.7081 41.5271 92.1681 40.7171C92.6381 39.8971 93.2781 39.2621 94.0881 38.8121C94.9081 38.3521 95.8181 38.1221 96.8181 38.1221C97.9981 38.1221 99.0231 38.4121 99.8931 38.9921C100.763 39.5621 101.363 40.3671 101.693 41.4071H99.2781ZM108.182 40.2971C108.812 40.2971 109.372 40.4371 109.862 40.7171C110.352 40.9871 110.732 41.3921 111.002 41.9321C111.282 42.4621 111.422 43.1021 111.422 43.8521V48.7271H109.322V44.1371C109.322 43.4771 109.157 42.9721 108.827 42.6221C108.497 42.2621 108.047 42.0821 107.477 42.0821C106.897 42.0821 106.437 42.2621 106.097 42.6221C105.767 42.9721 105.602 43.4771 105.602 44.1371V48.7271H103.502V37.6271H105.602V41.4521C105.872 41.0921 106.232 40.8121 106.682 40.6121C107.132 40.4021 107.632 40.2971 108.182 40.2971ZM117.109 48.8621C116.309 48.8621 115.589 48.6871 114.949 48.3371C114.309 47.9771 113.804 47.4721 113.434 46.8221C113.074 46.1721 112.894 45.4221 112.894 44.5721C112.894 43.7221 113.079 42.9721 113.449 42.3221C113.829 41.6721 114.344 41.1721 114.994 40.8221C115.644 40.4621 116.369 40.2821 117.169 40.2821C117.969 40.2821 118.694 40.4621 119.344 40.8221C119.994 41.1721 120.504 41.6721 120.874 42.3221C121.254 42.9721 121.444 43.7221 121.444 44.5721C121.444 45.4221 121.249 46.1721 120.859 46.8221C120.479 47.4721 119.959 47.9771 119.299 48.3371C118.649 48.6871 117.919 48.8621 117.109 48.8621ZM117.109 47.0321C117.489 47.0321 117.844 46.9421 118.174 46.7621C118.514 46.5721 118.784 46.2921 118.984 45.9221C119.184 45.5521 119.284 45.1021 119.284 44.5721C119.284 43.7821 119.074 43.1771 118.654 42.7571C118.244 42.3271 117.739 42.1121 117.139 42.1121C116.539 42.1121 116.034 42.3271 115.624 42.7571C115.224 43.1771 115.024 43.7821 115.024 44.5721C115.024 45.3621 115.219 45.9721 115.609 46.4021C116.009 46.8221 116.509 47.0321 117.109 47.0321ZM126.164 48.8621C125.484 48.8621 124.874 48.7421 124.334 48.5021C123.794 48.2521 123.364 47.9171 123.044 47.4971C122.734 47.0771 122.564 46.6121 122.534 46.1021H124.649C124.689 46.4221 124.844 46.6871 125.114 46.8971C125.394 47.1071 125.739 47.2121 126.149 47.2121C126.549 47.2121 126.859 47.1321 127.079 46.9721C127.309 46.8121 127.424 46.6071 127.424 46.3571C127.424 46.0871 127.284 45.8871 127.004 45.7571C126.734 45.6171 126.299 45.4671 125.699 45.3071C125.079 45.1571 124.569 45.0021 124.169 44.8421C123.779 44.6821 123.439 44.4371 123.149 44.1071C122.869 43.7771 122.729 43.3321 122.729 42.7721C122.729 42.3121 122.859 41.8921 123.119 41.5121C123.389 41.1321 123.769 40.8321 124.259 40.6121C124.759 40.3921 125.344 40.2821 126.014 40.2821C127.004 40.2821 127.794 40.5321 128.384 41.0321C128.974 41.5221 129.299 42.1871 129.359 43.0271H127.349C127.319 42.6971 127.179 42.4371 126.929 42.2471C126.689 42.0471 126.364 41.9471 125.954 41.9471C125.574 41.9471 125.279 42.0171 125.069 42.1571C124.869 42.2971 124.769 42.4921 124.769 42.7421C124.769 43.0221 124.909 43.2371 125.189 43.3871C125.469 43.5271 125.904 43.6721 126.494 43.8221C127.094 43.9721 127.589 44.1271 127.979 44.2871C128.369 44.4471 128.704 44.6971 128.984 45.0371C129.274 45.3671 129.424 45.8071 129.434 46.3571C129.434 46.8371 129.299 47.2671 129.029 47.6471C128.769 48.0271 128.389 48.3271 127.889 48.5471C127.399 48.7571 126.824 48.8621 126.164 48.8621ZM133.603 42.1421V46.1621C133.603 46.4421 133.668 46.6471 133.798 46.7771C133.938 46.8971 134.168 46.9571 134.488 46.9571H135.463V48.7271H134.143C132.373 48.7271 131.488 47.8671 131.488 46.1471V42.1421H130.498V40.4171H131.488V38.3621H133.603V40.4171H135.463V42.1421H133.603Z" fill="white"/>
</svg>
